<svg width="30" height="30" viewBox="0 0 30 30" fill="none" xmlns="http://www.w3.org/2000/svg">
<path d="M24.375 1.17188H20.232C20.0729 0.500859 19.469 0 18.75 0H11.25C10.531 0 9.92713 0.500859 9.76799 1.17188H5.625C4.26803 1.17188 3.16406 2.27584 3.16406 3.63281V27.5391C3.16406 28.896 4.26803 30 5.625 30H24.375C25.732 30 26.8359 28.896 26.8359 27.5391V14.6484C26.8359 14.3248 26.5736 14.0625 26.25 14.0625C25.9264 14.0625 25.6641 14.3248 25.6641 14.6484V27.5391C25.6641 28.2499 25.0858 28.8281 24.375 28.8281H5.625C4.9142 28.8281 4.33594 28.2499 4.33594 27.5391V3.63281C4.33594 2.92201 4.9142 2.34375 5.625 2.34375H9.72656V3.51562H6.10119C5.77764 3.51562 5.51525 3.77795 5.51525 4.10156V27.0703C5.51525 27.3939 5.77764 27.6562 6.10119 27.6562H23.9137C24.2372 27.6562 24.4996 27.3939 24.4996 27.0703V4.10156C24.4996 3.77795 24.2372 3.51562 23.9137 3.51562H20.2734V2.34375H24.375C25.0858 2.34375 25.6641 2.92201 25.6641 3.63281V9.96094C25.6641 10.2846 25.9264 10.5469 26.25 10.5469C26.5736 10.5469 26.8359 10.2846 26.8359 9.96094V3.63281C26.8359 2.27584 25.732 1.17188 24.375 1.17188ZM10.8984 1.52344C10.8984 1.32955 11.0561 1.17188 11.25 1.17188H18.75C18.9439 1.17188 19.1016 1.32955 19.1016 1.52344V4.33594C19.1016 4.52982 18.9439 4.6875 18.75 4.6875H11.25C11.0561 4.6875 10.8984 4.52982 10.8984 4.33594V1.52344ZM23.3278 26.4844H6.68713V4.6875H9.76799C9.92719 5.35852 10.531 5.85938 11.25 5.85938H18.75C19.469 5.85938 20.0729 5.35852 20.232 4.6875H23.3277V26.4844H23.3278Z" fill="#220959"/>
<path d="M26.25 11.7188C26.0959 11.7188 25.9447 11.7814 25.8357 11.8904C25.7268 11.9994 25.6641 12.1506 25.6641 12.3047C25.6641 12.4588 25.7267 12.61 25.8357 12.7189C25.9448 12.8279 26.0959 12.8906 26.25 12.8906C26.4041 12.8906 26.5553 12.8279 26.6642 12.7189C26.7732 12.61 26.8359 12.4588 26.8359 12.3047C26.8359 12.1506 26.7732 11.9994 26.6642 11.8904C26.5553 11.7814 26.4041 11.7188 26.25 11.7188Z" fill="#220959"/>
<path d="M10.7887 22.9688H9.03088V21.2109C9.03088 20.8873 8.7685 20.625 8.44495 20.625C8.12139 20.625 7.85901 20.8873 7.85901 21.2109V23.5547C7.85901 23.8783 8.12139 24.1406 8.44495 24.1406H10.7887C11.1123 24.1406 11.3746 23.8783 11.3746 23.5547C11.3746 23.2311 11.1123 22.9688 10.7887 22.9688Z" fill="#220959"/>
<path d="M14.0039 22.9688C13.8498 22.9688 13.6986 23.0314 13.5896 23.1404C13.4807 23.2494 13.418 23.4006 13.418 23.5547C13.418 23.7088 13.4806 23.86 13.5896 23.9689C13.6987 24.0779 13.8498 24.1406 14.0039 24.1406C14.158 24.1406 14.3092 24.0779 14.4181 23.9689C14.5271 23.86 14.5898 23.7088 14.5898 23.5547C14.5898 23.4006 14.5271 23.2494 14.4181 23.1404C14.3092 23.0314 14.158 22.9688 14.0039 22.9688Z" fill="#220959"/>
<path d="M15.7617 23.5547C15.7617 23.8783 16.0241 24.1406 16.3477 24.1406H21.5699C21.8935 24.1406 22.1559 23.8783 22.1559 23.5547C22.1559 23.2311 21.8935 22.9688 21.5699 22.9688H16.3477C16.0241 22.9688 15.7617 23.2311 15.7617 23.5547Z" fill="#220959"/>
<path d="M14.0039 20.625C13.6804 20.625 13.418 20.8873 13.418 21.2109C13.418 21.5346 13.6804 21.7969 14.0039 21.7969H17.5195C17.8431 21.7969 18.1055 21.5346 18.1055 21.2109C18.1055 20.8873 17.8431 20.625 17.5195 20.625H14.0039Z" fill="#220959"/>
<path d="M15 18.5156C18.1662 18.5156 20.7422 15.9397 20.7422 12.7734C20.7422 9.60715 18.1662 7.03125 15 7.03125C11.8338 7.03125 9.25781 9.60715 9.25781 12.7734C9.25781 15.9397 11.8338 18.5156 15 18.5156ZM15 8.20312C17.5201 8.20312 19.5703 10.2534 19.5703 12.7734C19.5703 15.2935 17.5201 17.3438 15 17.3438C12.4799 17.3438 10.4297 15.2935 10.4297 12.7734C10.4297 10.2534 12.4799 8.20312 15 8.20312Z" fill="#220959"/>
<path d="M13.88 14.4823C13.9944 14.5967 14.1444 14.6539 14.2943 14.6539C14.4442 14.6539 14.5942 14.5966 14.7086 14.4823L17.1848 12.0061C17.4136 11.7773 17.4136 11.4063 17.1848 11.1775C16.9559 10.9487 16.585 10.9487 16.3561 11.1775L14.2943 13.2393L13.4474 12.3924C13.2185 12.1636 12.8476 12.1636 12.6187 12.3924C12.3899 12.6212 12.3899 12.9922 12.6187 13.221L13.88 14.4823Z" fill="#220959"/>
<path d="M12.886 3.51562H17.1289C17.4524 3.51562 17.7148 3.2533 17.7148 2.92969C17.7148 2.60607 17.4524 2.34375 17.1289 2.34375H12.886C12.5624 2.34375 12.3 2.60607 12.3 2.92969C12.3 3.2533 12.5624 3.51562 12.886 3.51562Z" fill="#220959"/>
</svg>
