<svg width="30" height="30" viewBox="0 0 30 30" fill="none" xmlns="http://www.w3.org/2000/svg">
<path d="M26.4909 24.1509C26.7936 23.7152 26.9716 23.1867 26.9716 22.6172C26.9716 21.131 25.7625 19.9219 24.2763 19.9219C22.7901 19.9219 21.581 21.131 21.581 22.6172C21.581 23.1867 21.759 23.7152 22.0617 24.1509C21.0595 24.2261 20.1829 24.7566 19.6382 25.536C19.0934 24.7566 18.2167 24.2262 17.2147 24.1509C17.5173 23.7152 17.6953 23.1867 17.6953 22.6172C17.6953 21.131 16.4862 19.9219 15 19.9219C13.5138 19.9219 12.3047 21.131 12.3047 22.6172C12.3047 23.1867 12.4827 23.7152 12.7854 24.1509C11.7833 24.2261 10.9067 24.7566 10.3619 25.536C9.81716 24.7566 8.94048 24.2262 7.93841 24.1509C8.2411 23.7152 8.41911 23.1867 8.41911 22.6172C8.41911 21.131 7.20997 19.9219 5.7238 19.9219C4.23763 19.9219 3.02849 21.131 3.02849 22.6172C3.02849 23.1867 3.20649 23.7152 3.50919 24.1509C1.82872 24.2771 0.499756 25.6837 0.499756 27.3959V29.4141C0.499756 29.7377 0.762139 30 1.08569 30H28.9144C29.2379 30 29.5003 29.7377 29.5003 29.4141V27.3959C29.5003 25.6837 28.1714 24.277 26.4909 24.1509ZM24.2762 21.0938C25.1163 21.0938 25.7997 21.7772 25.7997 22.6172C25.7997 23.4572 25.1163 24.1406 24.2762 24.1406C23.4362 24.1406 22.7528 23.4572 22.7528 22.6172C22.7528 21.7772 23.4362 21.0938 24.2762 21.0938ZM15 21.0938C15.8401 21.0938 16.5234 21.7772 16.5234 22.6172C16.5234 23.4572 15.8401 24.1406 15 24.1406C14.16 24.1406 13.4766 23.4572 13.4766 22.6172C13.4766 21.7772 14.16 21.0938 15 21.0938ZM5.7238 21.0938C6.56386 21.0938 7.24724 21.7772 7.24724 22.6172C7.24724 23.4572 6.56386 24.1406 5.7238 24.1406C4.88374 24.1406 4.20036 23.4572 4.20036 22.6172C4.20036 21.7772 4.88374 21.0938 5.7238 21.0938ZM1.67157 27.3959C1.67157 26.2471 2.60614 25.3125 3.75493 25.3125H5.13786V27.0703C5.13786 27.3939 5.40024 27.6562 5.7238 27.6562C6.04735 27.6562 6.30974 27.3939 6.30974 27.0703V25.3125H7.69267C8.8414 25.3125 9.77602 26.2471 9.77602 27.3959V28.8281H1.67157V27.3959ZM10.9478 27.3959C10.9478 26.2471 11.8824 25.3125 13.0312 25.3125H14.4141V27.0703C14.4141 27.3939 14.6765 27.6562 15 27.6562C15.3236 27.6562 15.5859 27.3939 15.5859 27.0703V25.3125H16.9689C18.1176 25.3125 19.0522 26.2471 19.0522 27.3959V28.8281H10.9478V27.3959ZM28.3284 28.8281H20.2241V27.3959C20.2241 26.2471 21.1586 25.3125 22.3074 25.3125H23.6903V27.0703C23.6903 27.3939 23.9527 27.6562 24.2763 27.6562C24.5998 27.6562 24.8622 27.3939 24.8622 27.0703V25.3125H26.2451C27.3939 25.3125 28.3285 26.2471 28.3285 27.3959V28.8281H28.3284Z" fill="white"/>
<path d="M5.39063 18.8709C5.71418 18.8709 5.97656 18.6086 5.97656 18.2849V17.5195H14.4141V18.2849C14.4141 18.6086 14.6764 18.8709 15 18.8709C15.3236 18.8709 15.5859 18.6086 15.5859 18.2849V17.5195H17.9297C18.2532 17.5195 18.5156 17.2572 18.5156 16.9336C18.5156 16.61 18.2532 16.3477 17.9297 16.3477H15.5859V14.7439H21.223C21.5465 14.7439 21.8089 14.4816 21.8089 14.1579V10.3897C21.8089 8.67732 20.4158 7.2842 18.7034 7.2842H17.5399C18.0325 6.705 18.3308 5.95553 18.3308 5.13732V3.43957V3.31875C18.3308 1.48881 16.842 0 15.012 0C13.182 0 11.6933 1.48881 11.6933 3.31875V3.43957V5.13732C11.6933 5.95553 11.9915 6.705 12.4842 7.2842H11.3206C9.6082 7.2842 8.21514 8.67732 8.21514 10.3897V14.1579C8.21514 14.4816 8.47752 14.7439 8.80107 14.7439H14.4141V16.3477H5.39063C5.06707 16.3477 4.80469 16.61 4.80469 16.9336V18.2849C4.80469 18.6086 5.06707 18.8709 5.39063 18.8709ZM12.8651 5.13732V4.56252H13.6154C14.5106 4.56252 15.362 4.23158 16.0167 3.6409L17.1588 4.31191V5.13732C17.1588 6.32115 16.1957 7.2842 15.012 7.2842C13.8282 7.2842 12.8651 6.32115 12.8651 5.13732ZM13.3681 8.45607H14.5169L13.3681 9.19523V8.45607ZM15.5071 8.45607H16.6559V9.19523L15.5071 8.45607ZM12.8651 3.31875C12.8651 2.13492 13.8282 1.17188 15.012 1.17188C16.0639 1.17188 16.9416 1.9323 17.124 2.93232L16.2135 2.39736C15.9668 2.25246 15.6514 2.30684 15.4676 2.52621C15.0073 3.07559 14.3322 3.39064 13.6154 3.39064H12.8652V3.31875H12.8651ZM9.38701 10.3897C9.38701 9.3235 10.2544 8.45607 11.3206 8.45607H12.1962V10.2689C12.1962 10.4833 12.3133 10.6805 12.5015 10.7832C12.6897 10.886 12.9189 10.8777 13.0992 10.7617L14.4261 9.90803V10.6105C14.4261 10.9341 14.6885 11.1964 15.012 11.1964C15.3356 11.1964 15.598 10.9341 15.598 10.6105V9.90803L16.9248 10.7617C17.0211 10.8237 17.1313 10.8548 17.2419 10.8548C17.3383 10.8548 17.4349 10.8311 17.5225 10.7832C17.7107 10.6806 17.8278 10.4833 17.8278 10.2689V8.45607H18.7034C19.7696 8.45607 20.637 9.3235 20.637 10.3897V13.572H9.38701V10.3897Z" fill="white"/>
<path d="M19.8592 16.5193C19.7502 16.6283 19.6875 16.7795 19.6875 16.9336C19.6875 17.0877 19.7501 17.2389 19.8592 17.3479C19.9682 17.4568 20.1193 17.5195 20.2734 17.5195C20.4275 17.5195 20.5787 17.4568 20.6876 17.3479C20.7966 17.2389 20.8594 17.0877 20.8594 16.9336C20.8594 16.7795 20.7967 16.6283 20.6876 16.5193C20.5787 16.4104 20.4275 16.3477 20.2734 16.3477C20.1193 16.3477 19.9682 16.4104 19.8592 16.5193Z" fill="white"/>
<path d="M22.6172 17.5195H24.0383V18.2849C24.0383 18.6086 24.3007 18.8709 24.6243 18.8709C24.9478 18.8709 25.2102 18.6086 25.2102 18.2849V16.9336C25.2102 16.61 24.9478 16.3477 24.6243 16.3477H22.6172C22.2936 16.3477 22.0312 16.61 22.0312 16.9336C22.0312 17.2572 22.2936 17.5195 22.6172 17.5195Z" fill="white"/>
</svg>
