<svg width="30" height="30" viewBox="0 0 30 30" fill="none" xmlns="http://www.w3.org/2000/svg">
<g clip-path="url(#clip0_1_1954)">
<path d="M6.8833 1.95124C7.20691 1.95124 7.46924 1.68891 7.46924 1.3653V0.591919C7.46924 0.268306 7.20691 0.00598145 6.8833 0.00598145C6.55969 0.00598145 6.29736 0.268306 6.29736 0.591919V1.3653C6.29736 1.68891 6.55975 1.95124 6.8833 1.95124Z" fill="#220959"/>
<path d="M12.7785 4.18863C12.9284 4.18863 13.0784 4.13144 13.1928 4.01701L13.5979 3.61189C13.8267 3.38308 13.8267 3.01207 13.5979 2.7832C13.3691 2.55433 12.9981 2.55439 12.7692 2.7832L12.3641 3.18832C12.1353 3.41713 12.1353 3.78814 12.3641 4.01701C12.4785 4.13144 12.6285 4.18863 12.7785 4.18863Z" fill="#220959"/>
<path d="M1.12914 4.33367C1.27908 4.33367 1.42908 4.27643 1.54346 4.16205C1.77227 3.93324 1.77227 3.56223 1.54346 3.33336L1.00024 2.79014C0.771428 2.56133 0.400413 2.56133 0.171545 2.79014C-0.0572632 3.01895 -0.0572632 3.38996 0.171545 3.61883L0.714768 4.16205C0.829202 4.27643 0.979202 4.33367 1.12914 4.33367Z" fill="#220959"/>
<path d="M6.88821 11.262C6.50325 11.262 6.19006 11.0021 6.19006 10.6826C6.19006 10.359 5.92774 10.0967 5.60413 10.0967C5.28051 10.0967 5.01819 10.359 5.01819 10.6826C5.01819 11.4569 5.55766 12.1149 6.30292 12.3456C6.30983 12.6633 6.56893 12.9187 6.88821 12.9187C7.20749 12.9187 7.46659 12.6633 7.4735 12.3456C8.21875 12.1149 8.75823 11.4569 8.75823 10.6826C8.75823 9.71699 7.91934 8.9313 6.88821 8.9313C6.50325 8.9313 6.19006 8.67138 6.19006 8.35187C6.19006 8.03236 6.50325 7.77244 6.88821 7.77244C7.27317 7.77244 7.58635 8.03236 7.58635 8.35187C7.58635 8.67548 7.84868 8.93781 8.17229 8.93781C8.4959 8.93781 8.75823 8.67548 8.75823 8.35187C8.75823 7.57785 8.21905 6.91996 7.47415 6.6891V6.6571C7.47415 6.33349 7.21182 6.07117 6.88821 6.07117C6.56459 6.07117 6.30227 6.33349 6.30227 6.6571V6.6891C5.55737 6.91996 5.01819 7.57785 5.01819 8.35187C5.01819 9.31755 5.85708 10.1032 6.88821 10.1032C7.27317 10.1032 7.58635 10.3631 7.58635 10.6826C7.58635 11.0021 7.27317 11.262 6.88821 11.262Z" fill="#220959"/>
<path d="M29.4141 10.0118H28.5117C28.3884 9.60025 28.2242 9.20345 28.0204 8.825L28.6583 8.18714C28.8871 7.95833 28.8871 7.58732 28.6583 7.35845L26.8798 5.5799C26.651 5.35109 26.2799 5.35109 26.0511 5.5799L25.4132 6.21781C25.0347 6.0139 24.6378 5.8496 24.2264 5.72644V4.8241C24.2264 4.50048 23.9641 4.23816 23.6405 4.23816H21.1252C20.8016 4.23816 20.5393 4.50048 20.5393 4.8241V5.72861C20.1286 5.85212 19.7326 6.01654 19.355 6.22033L18.7146 5.57996C18.6047 5.47009 18.4556 5.40833 18.3002 5.40833C18.1448 5.40833 17.9958 5.47009 17.8859 5.57996L16.1074 7.35851C15.8786 7.58732 15.8786 7.95834 16.1074 8.1872L16.75 8.8298C16.5473 9.20697 16.3838 9.60236 16.2612 10.0119H15.3516C15.0279 10.0119 14.7656 10.2742 14.7656 10.5978V13.1131C14.7656 13.4367 15.0279 13.699 15.3516 13.699H16.2633C16.3864 14.1079 16.5499 14.5023 16.7525 14.8785L16.1074 15.5237C15.8786 15.7525 15.8786 16.1235 16.1074 16.3524L17.886 18.1309C17.9958 18.2408 18.1449 18.3025 18.3003 18.3025C18.4557 18.3025 18.6047 18.2408 18.7146 18.1309L19.3598 17.4857C19.736 17.6884 20.1304 17.8519 20.5393 17.9749V18.8867C20.5393 19.2103 20.8016 19.4727 21.1252 19.4727H23.6405C23.9641 19.4727 24.2264 19.2103 24.2264 18.8867V17.9771C24.6362 17.8544 25.0314 17.6909 25.4085 17.4883L26.0511 18.131C26.1609 18.2408 26.31 18.3026 26.4654 18.3026C26.6208 18.3026 26.7698 18.2408 26.8797 18.131L28.6583 16.3524C28.7681 16.2425 28.8299 16.0935 28.8299 15.9381C28.8299 15.7827 28.7681 15.6336 28.6583 15.5238L28.0179 14.8834C28.2217 14.5058 28.3861 14.1097 28.5096 13.6991H29.4141C29.7377 13.6991 30 13.4368 30 13.1132V10.5979C30 10.2741 29.7377 10.0118 29.4141 10.0118ZM28.8281 12.5271H28.0576C27.7829 12.5271 27.5445 12.7184 27.485 12.9867C27.3532 13.582 27.1197 14.1447 26.7912 14.6589C26.642 14.8897 26.673 15.1958 26.8692 15.3918L27.4153 15.938L26.4654 16.8879L25.9175 16.34C25.7307 16.1532 25.4412 16.1145 25.2119 16.2455C25.2038 16.2502 25.1957 16.255 25.1878 16.2601C24.673 16.588 24.1101 16.8207 23.5137 16.9521C23.2457 17.0117 23.0545 17.25 23.0545 17.5246V18.3008H21.7111V17.523C21.7111 17.2483 21.5197 17.0098 21.2514 16.9504C20.6569 16.8188 20.0949 16.5856 19.581 16.2577C19.573 16.2525 19.5648 16.2476 19.5565 16.2428C19.3272 16.1118 19.0378 16.1506 18.8509 16.3374L18.3003 16.888L17.3504 15.938L17.8975 15.3909C18.095 15.1969 18.1303 14.8885 17.979 14.6545C17.6528 14.1427 17.4207 13.5833 17.289 12.9918C17.2323 12.7238 16.9945 12.5272 16.7153 12.5272H15.9375V11.1838H16.7137C16.9887 11.1838 17.2273 10.9921 17.2864 10.7234C17.4175 10.1282 17.6502 9.56533 17.9781 9.05052C17.989 9.03347 17.9989 9.01589 18.008 8.99779C18.1208 8.7722 18.0765 8.4991 17.8982 8.32074L17.3503 7.77289L18.3002 6.82296L18.8464 7.36912C19.0425 7.56523 19.3486 7.59623 19.5793 7.44705C20.0937 7.11851 20.6562 6.88507 21.2518 6.75318C21.5199 6.69359 21.7111 6.45535 21.7111 6.18066V5.41003H23.0545V6.17896C23.0545 6.454 23.2462 6.69259 23.5148 6.75171C24.1118 6.88314 24.6759 7.11669 25.1918 7.44587C25.1998 7.45103 25.208 7.45595 25.2163 7.4607C25.4457 7.59171 25.7351 7.55304 25.9219 7.36619L26.4653 6.82279L27.4152 7.77271L26.8718 8.31605C26.685 8.5029 26.6462 8.7923 26.7773 9.02169C26.782 9.03001 26.787 9.03816 26.7921 9.04619C27.1213 9.56199 27.3548 10.1262 27.4866 10.7243C27.5462 10.9923 27.7845 11.1835 28.0591 11.1835H28.8281V12.5271Z" fill="#220959"/>
<path d="M22.3828 8.04675C20.2828 8.04675 18.5742 9.75529 18.5742 11.8553C18.5742 13.9554 20.2828 15.6639 22.3828 15.6639C24.4829 15.6639 26.1914 13.9554 26.1914 11.8553C26.1914 9.75529 24.4829 8.04675 22.3828 8.04675ZM22.3828 14.4921C20.9289 14.4921 19.7461 13.3092 19.7461 11.8553C19.7461 10.4015 20.9289 9.21863 22.3828 9.21863C23.8367 9.21863 25.0195 10.4015 25.0195 11.8553C25.0195 13.3092 23.8367 14.4921 22.3828 14.4921Z" fill="#220959"/>
<path d="M22.5 22.988C22.1764 22.988 21.914 23.2504 21.914 23.574V24.4144C21.914 24.6083 21.7564 24.7659 21.5625 24.7659H19.1654L19.3004 24.688C19.4349 24.6103 19.5331 24.4823 19.5733 24.3322C19.6136 24.1821 19.5925 24.0222 19.5148 23.8876L18.5255 22.1741C18.3637 21.8938 18.0054 21.7978 17.7251 21.9596L17.1616 22.285C16.9765 22.1541 16.7806 22.0409 16.5753 21.946V21.2957C16.5753 20.9722 16.313 20.7098 15.9893 20.7098H14.0107C13.6871 20.7098 13.4247 20.9722 13.4247 21.2957V21.946C13.2194 22.0409 13.0236 22.1541 12.8385 22.285L12.2749 21.9596C11.9947 21.7979 11.6363 21.8938 11.4745 22.1741L10.4852 23.8876C10.4075 24.0222 10.3864 24.1821 10.4267 24.3322C10.4669 24.4824 10.5651 24.6103 10.6997 24.688L10.8347 24.7659H7.82084C7.62696 24.7659 7.46928 24.6083 7.46928 24.4144V20.2032H7.99469C8.15008 20.2032 8.29909 20.1414 8.40901 20.0316L9.55985 18.8807C9.66971 18.7708 9.73147 18.6218 9.73147 18.4664V15.8108C9.81637 15.4203 10.0499 15.0763 10.3782 14.8619C12.1975 13.6741 13.2837 11.6696 13.2837 9.49974C13.2837 7.78986 12.6177 6.1824 11.4085 4.97349C10.1996 3.76494 8.59276 3.09949 6.8834 3.09949C6.88288 3.09949 6.88217 3.09949 6.88164 3.09949C3.35301 3.10042 0.482681 5.97187 0.483032 9.50044C0.483208 11.664 1.56473 13.6653 3.3761 14.8539C3.71219 15.0745 3.95014 15.4214 4.03516 15.8109V18.4665C4.03516 18.6219 4.09692 18.7709 4.20678 18.8808L5.35756 20.0316C5.46743 20.1415 5.61649 20.2032 5.77188 20.2032H6.29729V24.4144C6.29729 25.2545 6.98073 25.9379 7.82073 25.9379H10.8346L10.6996 26.0158C10.4193 26.1776 10.3233 26.5359 10.4851 26.8162L11.4744 28.5297C11.6362 28.8099 11.9945 28.9059 12.2748 28.7442L12.8383 28.4188C13.0234 28.5497 13.2193 28.6629 13.4246 28.7578V29.408C13.4246 29.7316 13.687 29.994 14.0106 29.994H15.9892C16.3128 29.994 16.5752 29.7316 16.5752 29.408V28.7578C16.7805 28.6629 16.9764 28.5497 17.1614 28.4188L17.725 28.7442C18.0054 28.906 18.3636 28.81 18.5254 28.5297L19.5147 26.8162C19.6765 26.5359 19.5805 26.1776 19.3002 26.0158L19.1652 25.9379H21.5625C22.4025 25.9379 23.0859 25.2545 23.0859 24.4144V23.574C23.0859 23.2504 22.8236 22.988 22.5 22.988ZM1.65491 9.50033C1.65461 6.61787 3.99942 4.27212 6.88188 4.27136C6.88241 4.27136 6.88282 4.27136 6.88334 4.27136C8.27963 4.27136 9.59243 4.81505 10.5799 5.80224C11.5677 6.78978 12.1117 8.10292 12.1117 9.49974C12.1117 11.2723 11.2242 12.91 9.7375 13.8807C9.26758 14.1875 8.90664 14.6406 8.70485 15.1643H5.06102C4.85811 14.6411 4.49389 14.1857 4.01899 13.8741C2.53885 12.9028 1.65508 11.2677 1.65491 9.50033ZM5.20709 18.2237V16.3362H8.55954V18.2238L7.75194 19.0313H6.01463L5.20709 18.2237ZM17.8036 27.4363L17.4024 27.2047C17.1832 27.0782 16.9075 27.1066 16.7188 27.2754C16.4517 27.5143 16.1447 27.6919 15.8063 27.8031C15.5658 27.8822 15.4033 28.1067 15.4033 28.3598V28.8221H14.5966V28.3598C14.5966 28.1067 14.4341 27.8822 14.1936 27.8031C13.8552 27.6919 13.5481 27.5143 13.2811 27.2754C13.0923 27.1066 12.8167 27.0781 12.5975 27.2047L12.1963 27.4363L11.793 26.7376L12.1934 26.5064C12.4124 26.38 12.5255 26.1274 12.4741 25.8799C12.4383 25.7071 12.4201 25.5295 12.4201 25.3519C12.4201 25.1743 12.4383 24.9966 12.4742 24.8238C12.5255 24.5762 12.4124 24.3237 12.1934 24.1973L11.793 23.9661L12.1963 23.2675L12.5975 23.499C12.8167 23.6256 13.0924 23.5972 13.2811 23.4283C13.5482 23.1894 13.8552 23.0119 14.1936 22.9006C14.4341 22.8216 14.5966 22.597 14.5966 22.344V21.8816H15.4033V22.344C15.4033 22.597 15.5658 22.8216 15.8063 22.9006C16.1447 23.0118 16.4518 23.1894 16.7188 23.4283C16.9075 23.597 17.1831 23.6256 17.4024 23.499L17.8036 23.2675L18.2069 23.9661L17.8065 24.1973C17.5876 24.3237 17.4744 24.5763 17.5257 24.8238C17.5616 24.9966 17.5798 25.1743 17.5798 25.3519C17.5798 25.5295 17.5616 25.7071 17.5258 25.8799C17.4744 26.1274 17.5875 26.38 17.8065 26.5064L18.2069 26.7376L17.8036 27.4363Z" fill="#220959"/>
<path d="M22.5 20.6444C22.3459 20.6444 22.1947 20.707 22.0857 20.8161C21.9768 20.9251 21.9141 21.0762 21.9141 21.2303C21.9141 21.3844 21.9768 21.5356 22.0857 21.6445C22.1947 21.7535 22.3459 21.8163 22.5 21.8163C22.6541 21.8163 22.8053 21.7536 22.9143 21.6445C23.0232 21.5356 23.0859 21.3844 23.0859 21.2303C23.0859 21.0762 23.0232 20.9251 22.9143 20.8161C22.8053 20.7071 22.6541 20.6444 22.5 20.6444Z" fill="#220959"/>
<path d="M15 24.7659C14.8459 24.7659 14.6947 24.8286 14.5857 24.9375C14.4768 25.0465 14.4141 25.1977 14.4141 25.3518C14.4141 25.5065 14.4768 25.6571 14.5857 25.7661C14.6947 25.875 14.8459 25.9377 15 25.9377C15.1541 25.9377 15.3053 25.875 15.4143 25.7661C15.5232 25.6571 15.5859 25.5064 15.5859 25.3518C15.5859 25.1977 15.5232 25.0465 15.4143 24.9375C15.3053 24.8286 15.1541 24.7659 15 24.7659Z" fill="#220959"/>
</g>
<defs>
<clipPath id="clip0_1_1954">
<rect width="30" height="30" fill="white"/>
</clipPath>
</defs>
</svg>
