<svg width="23" height="24" viewBox="0 0 23 24" fill="none" xmlns="http://www.w3.org/2000/svg">
<path d="M13.3421 10.5206C13.9779 11.1545 14.4499 11.907 14.6043 12.5336C14.6848 12.8605 14.9785 13.079 15.3017 13.079C15.3584 13.079 15.4161 13.0724 15.4736 13.0584C15.8591 12.964 16.0948 12.5762 16.0002 12.1923C15.7826 11.3091 15.1841 10.3307 14.3583 9.50799C13.5328 8.68525 12.5511 8.08909 11.6649 7.87195C11.2789 7.77755 10.8901 8.01216 10.7953 8.39644C10.7006 8.78071 10.9364 9.16847 11.3217 9.26288C11.9511 9.41708 12.7062 9.88702 13.3421 10.5206Z" fill="#220959"/>
<path d="M19.4399 4.44473C17.6869 2.69785 15.5345 1.44573 13.3788 0.918451C12.9934 0.824392 12.6042 1.05901 12.5096 1.44328C12.4151 1.82721 12.6509 2.21497 13.0363 2.30938C14.9404 2.77512 16.8537 3.89297 18.4236 5.45733C19.9934 7.02169 21.1155 8.92837 21.5832 10.826C21.6637 11.1525 21.9575 11.3711 22.2806 11.3711C22.3373 11.3711 22.395 11.3644 22.4526 11.3504C22.8381 11.256 23.0737 10.8683 22.9791 10.484C22.4496 8.3364 21.1927 6.19126 19.4399 4.44473Z" fill="#220959"/>
<path d="M16.8991 6.98862C15.6036 5.69769 14.0489 4.78124 12.5217 4.40746C12.1349 4.31341 11.7469 4.54803 11.6524 4.9323C11.5578 5.31622 11.7936 5.70398 12.1789 5.79839C13.4548 6.11064 14.7704 6.89281 15.8827 8.00122C16.9951 9.10998 17.7803 10.4205 18.0936 11.6922C18.1742 12.0188 18.4679 12.2373 18.791 12.2373C18.8477 12.2373 18.9054 12.2307 18.963 12.2167C19.3485 12.1223 19.5841 11.7345 19.4895 11.3502C19.1144 9.82852 18.1945 8.27955 16.8991 6.98862Z" fill="#220959"/>
<path d="M8.09787 8.30075C8.67247 7.25738 8.48386 5.94057 7.63905 5.09895L5.6438 3.11081C5.13287 2.60171 4.45352 2.32129 3.73118 2.32129C3.00866 2.32129 2.3293 2.60171 1.81891 3.11046L1.44326 3.48459C1.22377 3.70348 1.05042 3.94474 0.927781 4.20244C-1.17924 8.63048 0.390365 14.7536 4.74495 19.0929C7.80503 22.1422 11.7489 23.8209 15.366 23.8206C16.8958 23.8206 18.3677 23.5202 19.6888 22.8961C19.9478 22.7737 20.1905 22.6006 20.4093 22.3821L20.7844 22.0087C21.8387 20.9576 21.8385 19.2478 20.7842 18.1974L18.7888 16.2089C17.9445 15.3673 16.6228 15.1795 15.5755 15.7516L12.5765 17.3911C12.1966 17.5988 11.7331 17.6019 11.3669 17.3974C10.3545 16.8341 9.41342 16.1222 8.56984 15.2816C7.72661 14.4414 7.01216 13.5036 6.44632 12.4942C6.24174 12.1295 6.2442 11.6679 6.45264 11.2889L8.09787 8.30075ZM5.19148 13.1928C5.82188 14.3173 6.61669 15.361 7.55361 16.2942C8.49088 17.2282 9.53799 18.0201 10.6658 18.6478C11.472 19.0967 12.4445 19.0964 13.2676 18.6471L16.2668 17.0075C16.7575 16.7393 17.3769 16.8275 17.7725 17.2215L19.768 19.21C20.2619 19.7023 20.2619 20.5034 19.768 20.9961L19.3927 21.3698C19.29 21.4719 19.1823 21.5503 19.0727 21.602C15.1679 23.4468 9.69361 21.9989 5.76118 18.0803C1.82856 14.1613 0.375105 8.70705 2.22632 4.81608C2.27843 4.70699 2.35703 4.59965 2.45967 4.4972L2.83514 4.12341C3.07446 3.88495 3.39273 3.75348 3.73118 3.75348C4.06962 3.75348 4.3879 3.88495 4.62739 4.12341L6.62282 6.11156C7.01865 6.50597 7.10708 7.12311 6.83775 7.61193L5.19235 10.6004C5.19235 10.6004 5.19235 10.6004 5.19217 10.6008C4.74126 11.4204 4.74092 12.3893 5.19148 13.1928Z" fill="#220959"/>
</svg>
